<mxfile host="app.diagrams.net" modified="2023-10-12T00:48:39.606Z" agent="Mozilla/5.0 (Windows NT 10.0; Win64; x64) AppleWebKit/537.36 (KHTML, like Gecko) Chrome/116.0.0.0 Safari/537.36 OPR/102.0.0.0" etag="SidmmqfIuDecRwEyMbci" version="22.0.4" type="github">
  <diagram name="Page-1" id="IhKxiIeD-OfW2FYLo-AD">
    <mxGraphModel dx="1119" dy="660" grid="1" gridSize="10" guides="1" tooltips="1" connect="1" arrows="1" fold="1" page="1" pageScale="1" pageWidth="1169" pageHeight="827" math="0" shadow="0">
      <root>
        <mxCell id="0" />
        <mxCell id="1" parent="0" />
        <mxCell id="hgA3Jj-4t8EJrwO8SwAe-1" value="&lt;h1&gt;ERD Coffee Shop&lt;/h1&gt;" style="text;html=1;strokeColor=none;fillColor=none;spacing=5;spacingTop=-20;whiteSpace=wrap;overflow=hidden;rounded=0;" vertex="1" parent="1">
          <mxGeometry x="60" y="50" width="190" height="60" as="geometry" />
        </mxCell>
        <mxCell id="hgA3Jj-4t8EJrwO8SwAe-3" value="&lt;font style=&quot;font-size: 14px;&quot;&gt;Admin&lt;/font&gt;" style="rounded=0;whiteSpace=wrap;html=1;" vertex="1" parent="1">
          <mxGeometry x="80" y="370" width="120" height="60" as="geometry" />
        </mxCell>
        <mxCell id="hgA3Jj-4t8EJrwO8SwAe-4" value="" style="endArrow=none;html=1;rounded=0;exitX=0.664;exitY=0.011;exitDx=0;exitDy=0;exitPerimeter=0;" edge="1" parent="1" source="hgA3Jj-4t8EJrwO8SwAe-3" target="hgA3Jj-4t8EJrwO8SwAe-5">
          <mxGeometry width="50" height="50" relative="1" as="geometry">
            <mxPoint x="160" y="360" as="sourcePoint" />
            <mxPoint x="210" y="310" as="targetPoint" />
          </mxGeometry>
        </mxCell>
        <mxCell id="hgA3Jj-4t8EJrwO8SwAe-5" value="password" style="ellipse;whiteSpace=wrap;html=1;" vertex="1" parent="1">
          <mxGeometry x="200" y="290" width="80" height="40" as="geometry" />
        </mxCell>
        <mxCell id="hgA3Jj-4t8EJrwO8SwAe-7" value="username" style="ellipse;whiteSpace=wrap;html=1;" vertex="1" parent="1">
          <mxGeometry x="95" y="290" width="90" height="40" as="geometry" />
        </mxCell>
        <mxCell id="hgA3Jj-4t8EJrwO8SwAe-8" value="" style="endArrow=none;html=1;rounded=0;exitX=0.25;exitY=0;exitDx=0;exitDy=0;" edge="1" parent="1" source="hgA3Jj-4t8EJrwO8SwAe-3" target="hgA3Jj-4t8EJrwO8SwAe-9">
          <mxGeometry width="50" height="50" relative="1" as="geometry">
            <mxPoint x="95" y="360" as="sourcePoint" />
            <mxPoint x="40" y="320" as="targetPoint" />
          </mxGeometry>
        </mxCell>
        <mxCell id="hgA3Jj-4t8EJrwO8SwAe-9" value="AdminId" style="ellipse;whiteSpace=wrap;html=1;" vertex="1" parent="1">
          <mxGeometry y="290" width="80" height="40" as="geometry" />
        </mxCell>
        <mxCell id="hgA3Jj-4t8EJrwO8SwAe-10" value="" style="endArrow=none;html=1;rounded=0;" edge="1" parent="1" target="hgA3Jj-4t8EJrwO8SwAe-11">
          <mxGeometry width="50" height="50" relative="1" as="geometry">
            <mxPoint x="200" y="400" as="sourcePoint" />
            <mxPoint x="250" y="350" as="targetPoint" />
          </mxGeometry>
        </mxCell>
        <mxCell id="hgA3Jj-4t8EJrwO8SwAe-11" value="melakukan pendaftaran akun" style="rhombus;whiteSpace=wrap;html=1;" vertex="1" parent="1">
          <mxGeometry x="320" y="360" width="80" height="80" as="geometry" />
        </mxCell>
        <mxCell id="hgA3Jj-4t8EJrwO8SwAe-16" value="" style="endArrow=none;html=1;rounded=0;exitX=0.5;exitY=0;exitDx=0;exitDy=0;" edge="1" parent="1" source="hgA3Jj-4t8EJrwO8SwAe-3">
          <mxGeometry width="50" height="50" relative="1" as="geometry">
            <mxPoint x="90" y="380" as="sourcePoint" />
            <mxPoint x="140" y="330" as="targetPoint" />
          </mxGeometry>
        </mxCell>
        <mxCell id="hgA3Jj-4t8EJrwO8SwAe-17" value="" style="endArrow=none;html=1;rounded=0;" edge="1" parent="1">
          <mxGeometry width="50" height="50" relative="1" as="geometry">
            <mxPoint x="400" y="400" as="sourcePoint" />
            <mxPoint x="520" y="400" as="targetPoint" />
          </mxGeometry>
        </mxCell>
      </root>
    </mxGraphModel>
  </diagram>
</mxfile>
